<svg className="HomeSV2" viewBox="0 0 594 588.23">
	<path className="HomeSV2_mur"
		d="M533.94,277.62v271.31c0,21.43-15.71,38.8-35.08,38.8h-122.92c-19.37,0-35.08-17.37-35.08-38.8v-150.14c0-40.34-87.58-40.34-87.58,0v150.14c0,21.43-15.71,38.8-35.08,38.8H95.28c-19.37,0-35.08-17.37-35.08-38.8V277.62c0-15.26,11.19-27.65,25-27.65s25,12.39,25,27.65v243.67c0,6.16,4.51,11.15,10.08,11.15h72.92c5.57,0,10.08-4.99,10.08-11.15v-122.5c0-107.56,187.58-107.56,187.58,0v122.5c0,6.16,4.51,11.15,10.08,11.15h72.92c5.57,0,10.08-4.99,10.08-11.15v-243.67c0-15.26,11.19-27.65,25-27.65s25,12.39,25,27.65Z" />
	<path className="HomeSV2_toit"
		d="M588.83,244.76c-4.76,6.71-12.16,10.27-19.66,10.27-4.97,0-9.98-1.56-14.31-4.8L297,56.95,39.14,250.23c-4.33,3.24-9.34,4.8-14.31,4.8-7.5,0-14.9-3.56-19.66-10.27-7.91-11.16-5.53-26.8,5.32-34.93L277.45,9.73l5.92-4.44c4.13-3.09,8.88-4.66,13.63-4.79,4.75,.13,9.5,1.7,13.63,4.79l5.92,4.44,266.96,200.1c10.85,8.13,13.23,23.77,5.32,34.93Z" />
</svg>