<svg className="HomeSVG" viewBox="0 0 595.14 594">
	<path className="HomeSVG1"
		d="M533.8,283.39v271.31c0,21.43-15.71,38.8-35.08,38.8h-122.92c-19.37,0-35.08-17.37-35.08-38.8v-150.14c0-40.34-87.58-40.34-87.58,0v150.14c0,21.43-15.71,38.8-35.08,38.8H95.14c-19.37,0-35.08-17.37-35.08-38.8V283.39c0-15.26,11.19-27.65,25-27.65s25,12.39,25,27.65v243.67c0,6.16,4.51,11.15,10.08,11.15h72.92c5.57,0,10.08-4.99,10.08-11.15v-122.5c0-107.56,187.58-107.56,187.58,0v122.5c0,6.16,4.51,11.15,10.08,11.15h72.92c5.57,0,10.08-4.99,10.08-11.15v-243.67c0-15.26,11.19-27.65,25-27.65s25,12.39,25,27.65Z" />
	<path className="HomeSVG2"
		d="M589.96,232.96c-4.77,6.39-12.18,9.77-19.7,9.77-4.98,0-10-1.48-14.34-4.57L297.57,54.22,39.21,238.17c-4.34,3.08-9.36,4.57-14.34,4.57-7.51,0-14.93-3.39-19.7-9.77-7.93-10.62-5.54-25.51,5.33-33.24L277.98,9.28l5.93-4.23c4.14-2.94,8.9-4.43,13.66-4.56,4.76,.12,9.52,1.62,13.66,4.56l5.93,4.23,267.47,190.44c10.87,7.74,13.26,22.62,5.33,33.24Z" />
</svg>